<svg width="1200" height="1666" viewBox="0 0 1200 1666" fill="none" xmlns="http://www.w3.org/2000/svg">
<path d="M600 895H1200V1666H600V895Z" fill="#C8D0D2"/>
<path d="M900 153C900 139.745 910.745 129 924 129H1176C1189.25 129 1200 139.745 1200 153V826C1200 839.255 1189.25 850 1176 850H924C910.745 850 900 839.255 900 826V153Z" fill="#C8D0D2"/>
<path d="M840 758.5C840 809.034 799.034 850 748.5 850C697.966 850 657 809.034 657 758.5L657 91.5C657 40.9659 697.966 -4.41783e-06 748.5 0C799.034 4.41783e-06 840 40.966 840 91.5L840 758.5Z" fill="#C8D0D2"/>
<path d="M600 895.5C931.371 895.5 1044.97 895.5 1200 895.5C1200 1226.87 931.371 1495.5 600 1495.5C268.629 1495.5 1.44847e-05 1226.87 0 895.5C212.267 895.5 268.629 895.5 600 895.5Z" fill="#C8D0D2"/>
</svg>
