<svg width="1200" height="1537" viewBox="0 0 1200 1537" fill="none" xmlns="http://www.w3.org/2000/svg">
<path d="M600 766H1200V1537H600V766Z" fill="#C8D0D2"/>
<path d="M900 24C900 10.7452 910.745 0 924 0H1176C1189.25 0 1200 10.7452 1200 24V697C1200 710.255 1189.25 721 1176 721H924C910.745 721 900 710.255 900 697V24Z" fill="#C8D0D2"/>
<path d="M758.5 538C809.034 538 850 578.966 850 629.5C850 680.034 809.034 721 758.5 721H91.5C40.9659 721 -2.20891e-06 680.034 0 629.5C2.20891e-06 578.966 40.966 538 91.5 538L758.5 538Z" fill="#C8D0D2"/>
<path d="M600 766.5C931.371 766.5 1044.97 766.5 1200 766.5C1200 1097.87 931.371 1366.5 600 1366.5C268.629 1366.5 1.84843e-05 1097.87 3.9996e-06 766.5C212.267 766.5 268.629 766.5 600 766.5Z" fill="#C8D0D2"/>
</svg>
